# xmcd
#
# Track frame offsets:
#	150
#	6472
#	12794
#	23745
#	30448
#	37151
#	48274
#	54651
#	61028
#	72044
#	78558
#	85072
#	96249
#	102794
#	109339
#	120490
#	126942
#	133394
#	144571
#	150737
#	156897
#	168012
#	174482
#	180952
#	192036
#	198395
#	204754
#	215720
#	219417
#	223114
#	229173
#	233012
#	236851
#	242834
#	246589
#	250344
#	256354
#	260103
#	263852
#
# Disc length: 3593 seconds
#
# Revision: 0
# Processed by: cddbd v1.5.2PL0 Copyright (c) Steve Scherf et al.
# Submitted via: audiograbber 1.83.01
#
DISCID=2f0e0727
DTITLE=Rick Williams - Jam Tunes For Bluegrass Mandolin DIsc 2
DYEAR=2005
DGENRE=Bluegrass
TTITLE0=Liberty 1
TTITLE1=Liberty 2
TTITLE2=Liberty 3
TTITLE3=Lost Indian 1
TTITLE4=Lost Indian 2
TTITLE5=Lost Indian 3
TTITLE6=Red Haired Boy 1
TTITLE7=Red Haired Boy 2
TTITLE8=Red Haired Boy 3
TTITLE9=Sailor's Hornpipe 1
TTITLE10=Sailor's Hornpipe 2
TTITLE11=Sailor's Hornpipe 3
TTITLE12=Salt Creek 1
TTITLE13=Salt Creek 2
TTITLE14=Salt Creek 3
TTITLE15=St. Anne's Reel 1
TTITLE16=St. Anne's Reel 2
TTITLE17=St. Anne's Reel 3
TTITLE18=Stoney Point 1
TTITLE19=Stoney Point 2
TTITLE20=Stoney Point 3
TTITLE21=Temperance Reel 1
TTITLE22=Temperance Reel 2
TTITLE23=Temperance Reel 3
TTITLE24=Whiskey Before Breakfast 1
TTITLE25=Whiskey Before Breakfast 2
TTITLE26=Whiskey Before Breakfast 3
TTITLE27=Little Maggie 1
TTITLE28=Little Maggie 2
TTITLE29=Little Maggie 3
TTITLE30=Bury Me Beneath The Willow 1
TTITLE31=Bury Me Beneath The Willow 2
TTITLE32=Bury Me Beneath The Willow 3
TTITLE33=Banks Of The Ohio 1
TTITLE34=Banks Of The Ohio 2
TTITLE35=Banks Of The Ohio 3
TTITLE36=Will The Circle Be Unbroken 1
TTITLE37=Will The Circle Be Unbroken 2
TTITLE38=Will The Circle Be Unbroken 3
EXTD=
EXTT0=
EXTT1=
EXTT2=
EXTT3=
EXTT4=
EXTT5=
EXTT6=
EXTT7=
EXTT8=
EXTT9=
EXTT10=
EXTT11=
EXTT12=
EXTT13=
EXTT14=
EXTT15=
EXTT16=
EXTT17=
EXTT18=
EXTT19=
EXTT20=
EXTT21=
EXTT22=
EXTT23=
EXTT24=
EXTT25=
EXTT26=
EXTT27=
EXTT28=
EXTT29=
EXTT30=
EXTT31=
EXTT32=
EXTT33=
EXTT34=
EXTT35=
EXTT36=
EXTT37=
EXTT38=
PLAYORDER=
